<?xml version="1.0" encoding="UTF-8" standalone="no"?>
<!-- Created with Inkscape (http://www.inkscape.org/) -->

<svg
   width="210mm"
   height="230mm"
   viewBox="0 0 210 230"
   version="1.1"
   id="svg1"
   inkscape:version="1.3.2 (091e20e, 2023-11-25, custom)"
   sodipodi:docname="icon.svg"
   xmlns:inkscape="http://www.inkscape.org/namespaces/inkscape"
   xmlns:sodipodi="http://sodipodi.sourceforge.net/DTD/sodipodi-0.dtd"
   xmlns="http://www.w3.org/2000/svg"
   xmlns:svg="http://www.w3.org/2000/svg">
  <sodipodi:namedview
     id="namedview1"
     pagecolor="#ffffff"
     bordercolor="#000000"
     borderopacity="0.25"
     inkscape:showpageshadow="2"
     inkscape:pageopacity="0.0"
     inkscape:pagecheckerboard="0"
     inkscape:deskcolor="#d1d1d1"
     inkscape:document-units="mm"
     inkscape:zoom="0.70110129"
     inkscape:cx="397.23219"
     inkscape:cy="561.25984"
     inkscape:window-width="1920"
     inkscape:window-height="1001"
     inkscape:window-x="1911"
     inkscape:window-y="-9"
     inkscape:window-maximized="1"
     inkscape:current-layer="layer1" />
  <defs
     id="defs1" />
  <g
     inkscape:label="Layer 1"
     inkscape:groupmode="layer"
     id="layer1">
    <path
       style="fill:#d80000;fill-opacity:1;stroke-width:0.765"
       d="M 114.34689,230.2033 C 20.756035,184.54002 41.134688,148.31131 41.134688,148.31131 c 0,0 35.851335,-7.54765 24.529859,-33.96442 C 54.343074,87.930113 43.776365,72.08005 29.058449,67.928844 14.340533,63.777637 3.0190596,66.796694 3.0190596,66.796694 c 0,0 29.0584494,-25.284623 43.7763654,-15.472679 14.717916,9.811943 52.456161,18.114359 54.343075,50.191865 1.88691,32.07751 -34.341806,25.28463 -12.07624,60.00381 22.26557,34.71919 23.02033,-3.77382 35.47395,23.02033 12.45362,26.79416 7.54765,31.70013 7.54765,31.70013 0,0 4.52859,14.71792 -17.73697,13.96315 z"
       id="path1" />
    <path
       style="fill:#ffff00;fill-opacity:1;stroke-width:0.765"
       d="m 105.2897,1.5095299 c 21.13342,67.9288411 35.47395,67.5514601 35.47395,67.5514601 0,0 65.66455,28.303678 42.26684,52.07878 -23.39772,23.77509 40.7573,56.22999 -17.3596,58.87166 -58.1169,2.64168 -55.47522,26.79416 -55.47522,26.79416 0,0 15.0953,-78.49556 24.90724,-78.87294 9.81195,-0.37738 -40.757296,-36.228712 -35.473946,-70.570519 5.283356,-34.341802 -9.81194,-44.90851 0.754766,-46.795423 10.56671,-1.8869111 4.90597,-9.0571781 4.90597,-9.0571781 z"
       id="path3" />
    <path
       style="fill:#ff4600;fill-opacity:1;stroke-width:0.765"
       d="m 116.98857,225.67472 c 77.3634,-34.71918 41.51207,-83.02414 41.51207,-83.02414 0,0 13.20838,0.75476 -19.62389,-32.45489 C 106.04448,76.98602 103.02542,43.776365 68.683608,39.625158 34.341803,35.473952 50.569249,9.0571792 50.569249,9.0571792 L 37.738246,28.681066 c 0,0 -2.641679,-1.886911 8.302413,23.775095 10.94409,25.662009 52.078776,21.133419 54.343071,28.681069 2.2643,7.547647 -24.152475,18.86913 -19.246502,25.28463 4.905973,6.41551 -1.50953,17.73698 -1.50953,17.73698 0,0 -13.208386,12.07624 -7.547649,16.60483 5.660736,4.52859 -9.43456,21.88818 3.019059,21.5108 12.453623,-0.37738 41.889462,63.40025 41.889462,63.40025 z"
       id="path2" />
  </g>
</svg>
