<?xml version="1.0" encoding="UTF-8" standalone="no"?>
<!-- Created with Inkscape (http://www.inkscape.org/) -->

<svg
   width="210mm"
   height="100mm"
   viewBox="0 0 210 100"
   version="1.1"
   id="svg1"
   inkscape:version="1.3.2 (091e20e, 2023-11-25, custom)"
   sodipodi:docname="logo.svg"
   xmlns:inkscape="http://www.inkscape.org/namespaces/inkscape"
   xmlns:sodipodi="http://sodipodi.sourceforge.net/DTD/sodipodi-0.dtd"
   xmlns="http://www.w3.org/2000/svg"
   xmlns:svg="http://www.w3.org/2000/svg">
  <sodipodi:namedview
     id="namedview1"
     pagecolor="#ffffff"
     bordercolor="#000000"
     borderopacity="0.44313725"
     inkscape:showpageshadow="2"
     inkscape:pageopacity="0.0"
     inkscape:pagecheckerboard="false"
     inkscape:deskcolor="#d1d1d1"
     inkscape:document-units="mm"
     inkscape:zoom="0.99150695"
     inkscape:cx="422.58907"
     inkscape:cy="278.86844"
     inkscape:window-width="1920"
     inkscape:window-height="1001"
     inkscape:window-x="1911"
     inkscape:window-y="-9"
     inkscape:window-maximized="1"
     inkscape:current-layer="layer1" />
  <defs
     id="defs1" />
  <g
     inkscape:groupmode="layer"
     id="layer2"
     inkscape:label="flames">
    <path
       style="fill:#ff0000;fill-opacity:0.841837;stroke-width:0.264583"
       d="m 18.742879,24.690944 c 0,0 8.113723,39.81385 32.643582,28.49237 24.529862,-11.32147 44.908519,-1.69822 44.908519,-1.69822 0,0 38.87039,22.64295 42.26683,0.94346 3.39644,-21.69949 -4.71728,-12.83101 -4.71728,-12.83101 0,0 -28.49237,4.52859 -35.28526,-1.13215 -6.79288,-5.66073 -30.945363,-0.94345 -30.945363,-0.94345 0,0 -20.567343,2.45298 -19.246503,8.11372 1.320837,5.66074 -7.54765,3.77383 -7.54765,3.77383 0,0 -22.831639,-18.11436 -20.001272,-21.13342 2.83037,-3.01906 -2.075603,-3.58513 -2.075603,-3.58513 z"
       id="path6" />
    <path
       style="fill:#f86300;fill-opacity:0.915816;stroke-width:0.264583"
       d="m 131.95762,72.052444 c 0,0 -47.927574,17.92566 -40.56862,-6.41551 7.35896,-24.34117 -22.265563,-11.88754 -22.265563,-11.88754 0,0 -26.228079,11.69885 -21.69949,17.92566 4.52859,6.22681 -24.907242,16.22745 -24.907242,16.22745 0,0 22.831639,-10.00064 20.944726,-16.03876 -1.886913,-6.03812 1.320837,-9.81194 1.320837,-9.81194 0,0 9.434563,-21.32211 16.793522,-18.49174 7.358957,2.83037 23.775093,-9.62325 31.70013,4.15121 7.92503,13.77446 38.49301,1.88691 38.49301,1.88691 0,0 12.45362,-4.90597 6.4155,4.71728 -6.03812,9.62325 -6.22681,17.73698 -6.22681,17.73698 z"
       id="path7" />
    <path
       style="fill:#ffcc00;fill-opacity:0.84949;stroke-width:0.264583"
       d="m 26.856602,19.218894 c 0,0 19.246506,22.83164 32.077509,20.00127 12.831005,-2.83037 34.530499,-4.3399 35.851339,-0.94346 1.32083,3.39645 32.64358,8.6798 35.09656,6.41551 2.45299,-2.2643 9.62326,1.13214 10.00064,-5.47205 0.37738,-6.60419 5.28335,-15.85006 -6.22681,-13.20838 -11.51017,2.64167 -32.83227,10.75539 -37.92694,5.09466 -5.094661,-5.66074 -39.247776,8.11372 -40.757303,3.39644 -1.50953,-4.71728 -18.303049,-3.39644 -18.680432,-10.7554 -0.377383,-7.35896 -2.641677,-2.0756 -6.981577,-4.15121 -4.339899,-2.0756 -2.452986,-0.37738 -2.452986,-0.37738 z"
       id="path8" />
    <path
       style="fill:#aa0000;fill-opacity:0.854592;stroke-width:0.264583"
       d="m 141.76956,21.294504 c -0.94345,10.37801 -6.60419,13.20838 -6.60419,13.20838 0,0 -22.64295,3.01906 -21.32211,-2.26429 1.32084,-5.28336 -20.75603,13.58576 -19.62389,-1.50953 1.13215,-15.0953 -20.18996,-6.03812 -20.18996,-6.03812 0,0 -30.379289,13.20838 -24.152476,-1.13215 6.22681,-14.3405298 -32.832275,-7.73634 -32.832275,-7.73634 0,0 39.247775,-10.9440937 42.078145,-3.39644 2.830367,7.54765 -1.13215,6.60419 -1.13215,6.60419 0,0 14.529226,2.2643 22.642949,-0.56607 8.113723,-2.83037 20.001267,2.26429 20.001267,2.26429 0,0 5.84943,5.84943 2.45299,7.17027 -3.396439,1.32084 17.1709,-17.54829 28.49237,-11.69886 11.32148,5.84943 10.18933,5.09467 10.18933,5.09467 z"
       id="path9" />
    <path
       style="fill:#ffcc00;fill-opacity:0.923469;stroke-width:0.264583"
       d="m 131.39154,76.769724 1.13215,-10.7554 c 0,0 -34.3418,8.11372 -35.28526,1.50953 -0.94345,-6.6042 -19.623887,-5.66074 -19.623887,-5.66074 0,0 -25.095932,-9.43456 -29.435832,2.64168 -4.339897,12.07624 -27.171536,-3.58514 -27.171536,-3.58514 0,0 12.642313,18.30305 17.548283,13.39708 4.905973,-4.90597 10.7554,-2.0756 10.7554,-2.0756 0,0 4.339899,-14.15185 15.661372,-7.73634 11.321474,6.4155 18.680433,13.01969 22.076876,8.30241 3.39644,-4.71728 -0.754766,8.30241 9.623254,5.84943 10.37802,-2.45299 34.71918,-1.88691 34.71918,-1.88691 z"
       id="path10" />
  </g>
  <g
     inkscape:label="wheel"
     inkscape:groupmode="layer"
     id="layer1">
    <path
       style="fill:#2c2c2c;fill-opacity:1;stroke-width:0.264583"
       d="m 164.97858,11.671244 c 66.04193,53.39962 0,79.43901 0,79.43901 0,0 -13.20838,3.01906 -18.11436,-0.75476 -4.90597,-3.77383 -1.13214,-74.91042 -1.13214,-74.91042 z"
       id="path13" />
    <ellipse
       style="fill:#414141;fill-opacity:1;stroke-width:0.264583"
       id="path11"
       cx="146.29814"
       cy="52.617245"
       rx="22.265566"
       ry="37.549557" />
    <path
       style="fill:#242424;fill-opacity:1;stroke-width:0.264583"
       d="m 144.22255,15.256384 c 0,0 19.2465,-6.0381198 21.32211,-2.64168"
       id="path12" />
    <circle
       id="path14"
       style="fill:#000000;stroke:#000000;stroke-width:0.264583"
       cx="230.39198"
       cy="104.34624"
       r="0.025133489" />
    <path
       style="fill:#ffffff;fill-opacity:1;stroke-width:0.765;stroke-dasharray:none"
       d="m 142.14694,55.070224 c 0,0 -8.30241,-14.34053 -3.77382,-15.47268 4.52859,-1.13215 1.88691,-5.09466 1.88691,-5.09466 0,0 -25.47331,-12.831 -50.003174,-9.43456 -24.529859,3.39644 -50.380558,9.05718 -52.267471,12.831 -1.886913,3.77383 1.50953,2.64168 1.50953,2.64168 l 20.756035,-4.15121 -11.698856,3.39644 c 0,0 -11.132783,6.98158 0.377383,4.52859 11.510164,-2.45298 25.850699,-3.96251 25.850699,-3.96251 0,0 -15.472682,0.56607 -12.076239,3.96251 3.39644,3.39645 14.340533,1.13215 14.340533,1.13215 l 19.81258,-0.56607 c 0,0 -31.511436,9.62325 0,6.79288 31.51143,-2.83037 31.51143,-1.13215 31.51143,-1.13215 0,0 9.81195,3.39645 7.35896,5.66074 -2.45298,2.2643 6.4155,-1.13215 6.4155,-1.13215 z"
       id="path36" />
    <path
       style="fill:#000000;fill-opacity:1;stroke-width:0.765;stroke-dasharray:none"
       d="m 38.960056,37.092104 c 4.188963,-0.28989 7.771114,-2.52703 11.607962,-4.00274"
       id="path39" />
    <path
       style="fill:#000000;fill-opacity:1;stroke-width:0.765;stroke-dasharray:none"
       d="m 51.368567,32.689084 c 2.023386,0 1.10889,0.0475 4.936718,-0.93397 0.328099,-0.0841 0.60752,-0.30998 0.933974,-0.40028 1.76739,-0.48885 3.542948,-0.95473 5.336995,-1.33424 1.190305,-0.2518 2.770629,-0.26686 4.002746,-0.26686"
       id="path40" />
    <path
       style="fill:#000000;fill-opacity:1;stroke-width:0.765;stroke-dasharray:none"
       d="m 67.246123,29.220044 c 12.618238,-2.15084 7.771141,-2.00138 14.409886,-2.00138"
       id="path41" />
    <path
       style="fill:#000000;fill-opacity:1;stroke-width:0.765;stroke-dasharray:none"
       d="m 83.65738,26.818394 c 0.222375,0 0.446834,0.0304 0.667123,0 5.482037,-0.75614 1.071925,-0.43307 7.872067,-1.20083 3.10906,-0.35102 6.22013,-0.26684 9.33974,-0.26684"
       id="path42" />
    <path
       style="fill:#000000;fill-opacity:1;stroke-width:0.765;stroke-dasharray:none"
       d="m 100.73576,25.350724 c 2.78927,0.12581 5.63167,-0.27741 8.40577,0 0.63874,0.0639 1.41771,0.43366 2.00137,0.66712"
       id="path43" />
    <path
       style="fill:#000000;fill-opacity:1;stroke-width:0.765;stroke-dasharray:none"
       d="m 112.87742,26.418114 c 3.00077,-0.25137 5.90424,0.68941 8.80604,1.33425"
       id="path44" />
    <path
       style="fill:#000000;fill-opacity:1;stroke-width:0.765;stroke-dasharray:none"
       d="m 123.15114,28.419494 c 2.82151,0.5016 7.06039,0.99781 9.87343,2.26822 0.131,0.0592 0.33112,0.99336 0.40028,1.20082"
       id="path45" />
    <path
       style="fill:#000000;fill-opacity:1;stroke-width:0.765;stroke-dasharray:none"
       d="m 133.95855,31.755114 c 1.10462,-0.11615 2.05714,0.19649 3.06877,0.5337 0.0996,0.0332 0.31437,-0.0573 0.40027,0 0.3989,0.26593 0.77278,0.71995 1.20083,0.93397 0.38664,0.19333 1.00701,0.33989 1.33425,0.66713 0.0703,0.0703 0.0631,0.19653 0.13342,0.26685 0.0292,0.0292 0.61135,0.36637 0.66713,0.53369 0.0226,0.0677 0.0588,0.87516 0,0.93398 -0.30663,0.30663 -0.26686,-0.0346 -0.26686,0.26685"
       id="path46" />
    <path
       style="fill:#000000;fill-opacity:1;stroke-width:0.765;stroke-dasharray:none"
       d="m 44.430475,43.229654 c 2.352972,-2.79416 1.119386,-2.0999 3.06877,-2.93535"
       id="path47" />
    <path
       style="fill:#000000;fill-opacity:1;stroke-width:0.765;stroke-dasharray:none"
       d="m 48.299795,39.627184 c 3.134971,-0.75991 6.119664,-1.6011 9.339739,-1.6011"
       id="path48" />
    <path
       style="fill:#000000;fill-opacity:1;stroke-width:0.765;stroke-dasharray:none"
       d="m 55.771586,38.026084 c 0.400275,0 0.806371,0.068 1.200825,0 2.428131,-0.41865 4.670282,-1.3877 7.071516,-1.86795 1.388581,-0.27772 3.260209,-0.59093 4.669869,-0.66713 2.030561,-0.10976 4.10155,0 6.137545,0"
       id="path49" />
    <path
       style="fill:#000000;fill-opacity:1;stroke-width:0.765;stroke-dasharray:none"
       d="m 65.77845,42.028824 c 2.974303,-0.80077 8.827318,-2.42464 11.074263,-2.6685 3.18381,-0.34553 6.40493,-0.0598 9.606589,-0.13342 0.463333,-0.0107 2.793796,0.008 3.335621,-0.5337"
       id="path50" />
    <path
       style="fill:#000000;fill-opacity:1;stroke-width:0.765;stroke-dasharray:none"
       d="m 100.20206,43.496494 c -5.90866,1.68819 -11.334608,5.13233 -16.944954,7.33837 0.06414,-2.82196 11.267844,-3.26235 13.609334,-5.60384"
       id="path51" />
  </g>
  <g
     inkscape:groupmode="layer"
     id="layer3"
     inkscape:label="letters">
    <path
       style="fill:#460000;fill-opacity:1;stroke-width:0.264583"
       id="path16"
       d="m 58.953865,28.634784 c 0.857919,1.65342 1.558639,3.38138 2.210675,5.12431 0.506209,1.37875 0.905127,2.79198 1.084332,4.25058 0.07771,0.82185 0.08974,1.64929 0.01132,2.47105 -0.08416,0.62885 -0.130905,1.26052 -0.14464,1.89454 -0.01757,0.85412 0.0071,1.7079 -0.01871,2.56183 -0.05707,0.95987 -0.166695,1.91539 -0.254474,2.87272 -0.085,0.85921 -0.102441,1.72202 -0.106013,2.58469 0.0043,0.67059 0.0032,0.33405 0.0032,1.00962 0,0 3.442321,1.7548 3.442321,1.7548 v 0 c 0.0026,-0.6709 -5.29e-4,-0.33763 0.0097,-0.99983 0.01249,-0.85491 0.025,-1.71039 0.08338,-2.56368 0.0745,-0.96384 0.215546,-1.92023 0.260311,-2.8863 0.05249,-0.84855 0.02968,-1.69942 0.05731,-2.54916 0.02389,-0.62614 0.05688,-1.25185 0.128519,-1.87468 0.0795,-0.85495 0.07026,-1.70875 -0.01196,-2.56465 -0.181723,-1.52595 -0.664572,-2.98064 -1.213839,-4.41188 -0.632031,-1.69228 -1.28079,-3.37912 -1.958779,-5.05306 z" />
    <path
       style="fill:#460000;fill-opacity:1;stroke-width:0.264583"
       id="path17"
       d="m 64.407604,32.178144 c 0.0763,0.015 0.156099,0.0177 0.228891,0.045 0.266957,0.10029 0.478984,0.31106 0.746004,0.41867 0.283167,0.11413 0.412363,0.12206 0.720283,0.18127 0.913109,0.15197 1.834756,0.17317 2.756336,0.11859 0.880552,-0.13217 1.647336,-0.56343 2.420808,-0.97314 0.669422,-0.33711 1.371219,-0.5961 2.041327,-0.93182 0.408858,-0.18946 0.213132,-0.0894 0.58824,-0.29797 0,0 -3.283503,-2.14 -3.283503,-2.14 v 0 c -0.352057,0.19552 -0.165378,0.097 -0.561319,0.29321 -0.675701,0.32967 -1.388922,0.57362 -2.042805,0.9477 -0.728216,0.40153 -1.478627,0.76905 -2.322942,0.83223 -0.900342,0.0447 -1.806646,-0.006 -2.686264,-0.21539 -0.60371,-0.19712 -1.121113,-0.5388 -1.733542,-0.70889 z" />
    <path
       style="fill:#460000;fill-opacity:1;stroke-width:0.264583"
       id="path18"
       d="m 67.70572,39.617284 c 0.485577,-0.40664 0.918784,-0.71081 1.515843,-0.93358 0.569159,-0.18654 1.171149,-0.19605 1.763953,-0.20727 0.546794,0.0456 1.090827,0.13782 1.550337,0.44895 -5.837738,-3.1805 -3.532598,-2.24118 -2.488377,-1.30802 0.123394,0.11027 0.236297,0.23175 0.355769,0.34626 0.23001,0.20792 0.120648,0.10358 0.328904,0.31217 0,0 3.628416,1.53447 3.628416,1.53447 v 0 c -0.191344,-0.25444 -0.08667,-0.1327 -0.315092,-0.3643 -0.18342,-0.14872 -0.205087,-0.15539 -0.365459,-0.32871 -0.06173,-0.0667 -0.11114,-0.14498 -0.177895,-0.20668 -1.053785,-0.97393 -4.017092,-1.92392 -4.029768,-2.44389 -0.529249,-0.20621 -1.090157,-0.29752 -1.659043,-0.28028 -0.628198,0.0263 -1.258748,0.0694 -1.84376,0.32409 -0.585044,0.26444 -1.096547,0.62907 -1.618189,0.99983 z" />
    <path
       style="fill:#460000;fill-opacity:1;stroke-width:0.264583"
       id="path19"
       d="m 73.439566,27.807264 c 0.578123,0.77914 1.039715,1.63659 1.535179,2.46891 0.594029,0.9319 1.118764,1.90266 1.588923,2.90214 0.495375,1.11105 0.903619,2.26011 1.176372,3.44574 0.226486,1.05713 0.492274,2.10313 0.651561,3.17348 0.124142,0.93714 0.126219,1.88369 0.137242,2.82714 0.0078,0.86894 -0.0016,1.73554 -0.09079,2.60034 -0.08912,0.72734 -0.19063,1.44824 -0.406236,2.14927 -0.277278,0.71229 -0.598456,1.42132 -1.007952,2.06852 -0.299752,0.48502 -0.689837,0.89972 -1.029234,1.35609 0,0 3.383065,2.00446 3.383065,2.00446 v 0 c 0.341744,-0.46536 0.73206,-0.89449 1.017294,-1.39966 0.41534,-0.67971 0.744792,-1.41782 1.062469,-2.14643 0.247399,-0.72751 0.329769,-1.47644 0.405482,-2.23922 0.103629,-0.87483 0.16859,-1.75162 0.12854,-2.63315 -0.0067,-0.96168 -0.04194,-1.92354 -0.132766,-2.8813 -0.143475,-1.08394 -0.427556,-2.13608 -0.651906,-3.20489 -0.245124,-1.21462 -0.702152,-2.36495 -1.13583,-3.52267 -0.469905,-1.00836 -0.967267,-2.00245 -1.57036,-2.93896 -0.496176,-0.80473 -0.939255,-1.64057 -1.436508,-2.44395 z" />
    <path
       style="fill:#460000;fill-opacity:1;stroke-width:0.264583"
       id="path20"
       d="m 86.195557,36.845974 c -0.489569,0.70418 -0.738137,1.37148 -0.948811,2.19809 -0.203587,0.87627 -0.273191,1.77802 -0.308139,2.67499 7.93e-4,0.68685 -0.07086,1.36961 -0.114795,2.05416 -0.0173,0.90822 -0.139049,1.80943 -0.202576,2.71457 -0.04844,0.67279 -0.06159,1.34753 -0.07574,2.02174 -0.03493,0.55352 0.08834,1.09301 0.221906,1.62557 0.562184,1.53012 1.876073,1.51031 3.778099,2.45944 0.06897,0.0344 0.679916,-0.33619 0.757986,-0.38266 0.586378,-0.39582 1.195861,-0.74979 1.799781,-1.11672 0.529772,-0.28665 1.061622,-0.58665 1.638242,-0.7679 0.46777,-0.0726 0.91983,-0.20403 1.37917,-0.31526 0,0 -3.219337,-2.22402 -3.219337,-2.22402 v 0 c -0.471723,0.11436 -0.951669,0.19557 -1.414412,0.34195 -0.576866,0.2311 -1.12521,0.53032 -1.661134,0.84367 -0.606554,0.35579 -1.19122,0.74695 -1.805842,1.08828 -0.113998,0.0521 -0.297934,0.15592 -0.437438,0.15486 -0.05443,-5.3e-4 -0.202872,-0.0756 -0.156229,-0.0475 1.066144,0.64141 2.154627,1.24529 3.218776,1.89 0.05644,0.0342 -0.136361,-0.0169 -0.190146,-0.0551 -0.06375,-0.0453 -0.09726,-0.12251 -0.145894,-0.18377 -0.151516,-0.49317 -0.269332,-1.00789 -0.267097,-1.52617 -0.0045,-0.67282 -5.5e-5,-1.34571 0.03386,-2.01786 0.05404,-0.90452 0.137592,-1.80611 0.208048,-2.70923 0.05337,-0.68914 0.151116,-1.37573 0.122547,-2.06831 0.01699,-0.87587 0.04702,-1.75654 0.238924,-2.61501 0.188362,-0.74186 0.458573,-1.448 0.963689,-2.03761 z" />
    <path
       style="fill:#460000;fill-opacity:1;stroke-width:0.264583"
       id="path21"
       d="m 89.059817,36.592894 c 0.09359,1.04717 0.397106,2.06232 0.711444,3.06084 0.367768,1.28221 0.938239,2.49344 1.518519,3.69058 0.33833,0.70837 0.71287,1.40266 0.97479,2.14479 0.1089,0.30856 0.20191,0.62255 0.30865,0.93186 0.30872,0.92242 0.60784,1.84948 0.88256,2.78281 0.24832,0.78587 0.48518,1.57529 0.74145,2.3587 0.0902,0.30735 0.19163,0.61072 0.29898,0.91241 0,0 3.55413,1.64804 3.55413,1.64804 v 0 c -0.12504,-0.29548 -0.23475,-0.59497 -0.32248,-0.90406 -0.27206,-0.78106 -0.50436,-1.57336 -0.76986,-2.35665 -0.28342,-0.93841 -0.57599,-1.87486 -0.88474,-2.80444 -0.66095,-1.84559 0.31148,0.89708 -0.30864,-0.94292 -0.2572,-0.76312 -0.64621,-1.46902 -0.99374,-2.19252 -0.58673,-1.17996 -1.16589,-2.37813 -1.54696,-3.64229 -0.30633,-0.93742 -0.58189,-1.90064 -0.63788,-2.89045 z" />
    <path
       style="fill:#460000;fill-opacity:1;stroke-width:0.264583"
       id="path22"
       d="m 94.97426,37.083224 c 0.61598,0.81366 1.11371,1.70566 1.5763,2.61265 0.64234,1.21471 0.95,2.55658 1.24385,3.88736 0.19906,0.93214 0.33261,1.87645 0.52569,2.80973 0.23304,0.95557 0.48002,1.90514 0.63612,2.87713 0.10343,0.55405 0.33417,1.07131 0.513151,1.60336 0,0 3.530289,1.66862 3.530289,1.66862 v 0 c -0.15075,-0.54524 -0.36166,-1.03191 -0.54344,-1.56244 -0.17574,-0.97706 -0.41563,-1.93909 -0.65999,-2.90077 -0.18056,-0.94308 -0.32267,-1.8923 -0.53357,-2.8296 -0.34344,-1.34077 -0.62858,-2.71165 -1.21622,-3.97305 -0.445889,-0.89565 -0.90718,-1.78071 -1.45027,-2.62218 z" />
    <path
       style="fill:#460000;fill-opacity:1;stroke-width:0.264583"
       id="path23"
       d="m 102.4167,41.518354 c 0.14001,-0.48516 0.19915,-1.05451 0.48936,-1.48268 0.0598,-0.0883 0.14274,-0.1585 0.21411,-0.23774 0.94061,-0.55914 2.05548,-0.67806 3.12858,-0.63691 0.17166,0.0423 0.34766,0.0697 0.51497,0.12677 0.16167,0.0552 0.31204,0.1391 0.46806,0.20865 -0.97043,-0.53129 -1.9129,-1.1172 -2.91128,-1.59389 -0.14819,-0.0708 0.238,0.22906 0.33313,0.36291 0.24984,0.35153 0.29356,0.58279 0.4301,0.98791 0.28006,1.23993 0.2766,2.522 0.37419,3.78507 0.0427,1.49871 0.40589,2.9501 0.74581,4.4008 0.13009,0.55994 0.28487,1.1136 0.43099,1.66946 0,0 3.4842,1.65876 3.4842,1.65876 v 0 c -0.16075,-0.55723 -0.32518,-1.1135 -0.47139,-1.6748 -0.35477,-1.43557 -0.75929,-2.87247 -0.80734,-4.36031 -0.0786,-1.27801 -0.0218,-2.57132 -0.28119,-3.83195 -0.10689,-0.41746 -0.16017,-0.72355 -0.35719,-1.11052 -0.74403,-1.46137 -2.80804,-1.99685 -4.01106,-2.67237 -0.15274,-0.0858 -0.33174,-0.1156 -0.50316,-0.15163 -0.18232,-0.0383 -0.36961,-0.0471 -0.55442,-0.0707 -1.16621,0.0329 -2.37888,0.20408 -3.355159,0.88925 -0.0876,0.10576 -0.18654,0.20302 -0.2627,0.31727 -0.300991,0.45146 -0.382521,1.02368 -0.571981,1.52331 z" />
    <path
       style="fill:#460000;fill-opacity:1;stroke-width:0.264583"
       id="path24"
       d="m 110.15145,44.191534 c 0.33211,-0.84485 0.89132,-1.59361 1.42838,-2.32033 0.43798,-0.55492 0.75641,-1.01711 1.44673,-1.24034 0.32319,-0.0738 0.65941,-0.0432 0.98528,-0.0829 0.384,-0.0468 0.7684,-0.14852 1.1517,-0.20693 0.4934,-0.0339 0.97363,-0.15725 1.45753,-0.25122 0.22998,-0.0447 0.53609,-0.12857 0.78172,-0.0847 0.0817,0.0146 0.15139,0.068 0.22708,0.10196 -1.0737,-0.58844 -2.11716,-1.23576 -3.22109,-1.76533 -0.0859,-0.0412 0.088,0.17334 0.0996,0.26791 0.0197,0.16052 0.002,0.32363 -0.007,0.4851 -0.0478,0.87328 -0.19634,1.72889 -0.33461,2.59109 -0.30261,1.50465 -0.64147,3.00196 -0.90415,4.51434 -0.11512,0.79792 -0.24947,1.59448 -0.32409,2.39749 -0.0264,0.76606 -0.17107,1.51741 -0.28906,2.27247 0,0 3.44196,1.8187 3.44196,1.8187 v 0 c 0.10916,-0.76287 0.29536,-1.51479 0.30732,-2.28767 0.0742,-0.80364 0.19344,-1.60193 0.257,-2.40665 0.20301,-1.52992 0.52428,-3.03787 0.83027,-4.54986 0.17725,-1.08745 0.1105,-0.70162 0.3021,-1.78289 0.0473,-0.26686 0.18639,-0.99341 0.21802,-1.31984 0.0145,-0.14945 0.13811,-0.36053 0.0176,-0.45011 -1.10633,-0.82237 -2.35154,-1.4392 -3.52731,-2.15879 -0.84749,7.9e-4 -1.65937,0.34632 -2.5088,0.37201 -0.74397,0.11037 -1.49631,0.17739 -2.22886,0.34091 -0.66827,0.32711 -1.08242,0.85893 -1.50904,1.45673 -0.54788,0.77429 -1.09562,1.55516 -1.56825,2.37763 z" />
    <path
       style="fill:#460000;fill-opacity:1;stroke-width:0.264583"
       id="path25"
       d="m 118.87843,39.848544 c 0.0899,1.58384 0.0937,3.17185 0.095,4.75786 2.6e-4,1.498 -0.0339,2.99563 -0.0532,4.49339 -0.0211,0.77314 -0.0181,1.54653 -0.0279,2.31983 -0.007,0.46716 -0.0121,0.93435 -0.0144,1.40157 0,0 3.51639,1.79169 3.51639,1.79169 v 0 c -0.002,-0.47211 -0.007,-0.94419 -0.0144,-1.41625 -0.01,-0.78277 -0.007,-1.56563 -0.0279,-2.34825 -0.0193,-1.51583 -0.0533,-3.03153 -0.0532,-4.5476 10e-4,-1.55369 0.003,-3.10965 0.095,-4.66104 z" />
    <path
       style="fill:#460000;fill-opacity:1;stroke-width:0.264583"
       id="path26"
       d="m 124.54186,41.759394 c 0.0914,1.55702 0.0848,3.11789 0.0828,4.67702 -0.0249,1.40892 -0.0207,2.81816 -0.0381,4.22713 -0.009,0.90915 -0.0161,1.81833 -0.0284,2.72746 -0.0341,0.38523 0.0484,0.79108 -0.0695,1.16495 0,0 3.46391,1.90705 3.46391,1.90705 v 0 c 0.14428,-0.42244 0.0854,-0.8596 0.0831,-1.30015 -0.0122,-0.91876 -0.0189,-1.83757 -0.0284,-2.75635 -0.0173,-1.42192 -0.0133,-2.84409 -0.0381,-4.26596 -0.002,-1.53098 -0.0106,-3.06395 0.0828,-4.5927 z" />
    <path
       style="fill:#460000;fill-opacity:1;stroke-width:0.264583"
       id="path27"
       d="m 129.06964,46.649024 c 0.6254,-0.89211 1.48211,-1.59809 2.44742,-2.09224 0.82046,-0.33777 1.71921,-0.34359 2.5897,-0.25992 0.23215,0.0486 0.51161,0.0909 0.72937,0.19713 0.0966,0.0472 0.36082,0.23348 0.26693,0.1811 -1.04935,-0.59607 -2.0987,-1.19214 -3.14805,-1.78822 0.0484,0.0486 0.10775,0.0884 0.1452,0.14589 0.0335,0.0515 0.0418,0.11555 0.0628,0.17333 -0.12969,1.17752 -0.34603,2.34478 -0.51587,3.51747 -0.15513,1.13036 -0.2257,2.26974 -0.28206,3.40856 -0.0172,0.86583 -0.0111,1.73183 -0.007,2.59775 0,0 3.4574,1.76082 3.4574,1.76082 v 0 c 5.3e-4,-0.86143 -0.003,-1.72289 0.01,-2.58426 0.005,-1.13815 0.0486,-2.27698 0.19141,-3.4072 0.15876,-1.1866 0.37602,-2.36245 0.65522,-3.52657 0.0124,-0.12116 0.0528,-0.24268 0.0372,-0.36347 -0.0114,-0.088 -0.0406,-0.1916 -0.115,-0.23998 -1.6327,-1.0623 -2.80481,-2.19632 -4.61379,-2.37513 -0.93104,-0.0309 -1.84827,0.0138 -2.69368,0.45437 -0.98711,0.5767 -1.83459,1.34756 -2.60405,2.19011 z" />
    <path
       style="fill:#460000;fill-opacity:1;stroke-width:0.264583"
       id="path28"
       d="m 138.46665,43.725344 c -0.30005,1.03598 -0.35254,2.12125 -0.40144,3.19223 -1e-5,0.66296 -0.0758,1.32602 -0.0737,1.9889 0.002,0.49404 0.0656,0.98433 0.12761,1.47331 0.10355,0.67823 0.16296,1.36082 0.1879,2.0461 0.0168,0.15559 -0.0264,0.95761 0.0909,1.03423 3.40991,2.22724 2.25056,2.15604 4.06917,2.14568 0.8193,0.048 1.59606,-0.22219 2.3878,-0.3809 0.66465,-0.19691 1.35216,-0.26204 2.04078,-0.30217 0.0999,-0.0129 0.52657,-0.08 0.64951,-0.0535 0.076,0.0164 0.27108,0.15221 0.20275,0.11516 -1.07416,-0.5823 -2.10843,-1.24433 -3.22028,-1.75097 -0.0974,-0.0444 0.0619,0.20706 0.0667,0.31394 0.008,0.17414 -0.0198,0.34805 -0.0296,0.52207 -0.22079,1.44952 -0.4759,2.89273 -0.65719,4.34814 -0.15943,1.60079 -0.20383,3.20973 -0.24787,4.81689 -0.0439,0.6324 0.0311,1.28309 -0.11219,1.90677 -0.02,0.087 -0.027,0.18329 -0.0787,0.25602 -0.0555,0.0779 -0.15179,0.11626 -0.22768,0.17439 -0.15554,0.0592 -0.30613,0.13346 -0.46661,0.17751 -2.01855,0.55404 -4.15438,0.31944 -6.20369,0.13988 -2.64203,-0.33478 -5.33299,-0.50307 -7.92619,-1.14173 -0.093,-0.0607 -0.1859,-0.12135 -0.27885,-0.18203 0,0 3.07387,2.43553 3.07387,2.43553 v 0 c 0.0846,0.018 0.16919,0.0361 0.25379,0.0541 2.57477,0.37052 5.15693,0.68774 7.74437,0.95566 1.51995,0.13324 3.0277,0.27476 4.55521,0.17767 0.51224,-0.0325 1.45781,-0.14264 1.98245,-0.30261 0.20104,-0.0613 0.383,-0.17327 0.5745,-0.25991 0.11965,-0.11602 0.26509,-0.21034 0.35896,-0.34806 0.0609,-0.0893 0.0686,-0.2056 0.0906,-0.31148 0.13579,-0.65623 0.03,-1.33282 0.0561,-1.99533 0.002,-1.59963 0.0281,-3.20224 0.20284,-4.7939 0.17652,-1.4501 0.44057,-2.88464 0.71975,-4.31806 0.0322,-0.18623 0.073,-0.37117 0.0965,-0.55868 0.0189,-0.15077 0.15026,-0.36101 0.0307,-0.45483 -2.51874,-1.97698 -2.43547,-2.42033 -4.38175,-2.19368 -0.70349,0.0572 -1.39914,0.15517 -2.08138,0.34207 -0.75434,0.17522 -1.5038,0.40838 -2.2888,0.2916 -1.55357,-0.40764 -0.66177,-0.21697 2.63914,1.79322 0.0523,0.0318 -0.10711,-0.0705 -0.13413,-0.12545 -0.11152,-0.22678 0.006,-0.52542 -0.05,-0.76189 -0.034,-0.70207 -0.0792,-1.40559 -0.20519,-2.09818 -0.0757,-0.47508 -0.1696,-0.95416 -0.19165,-1.43579 -0.0304,-0.66273 0.0265,-1.32937 0.0386,-1.99153 0.0654,-1.01446 0.10749,-2.06141 0.46791,-3.02288 z" />
    <path
       style="fill:#460000;fill-opacity:1;stroke-width:0.264583"
       id="path29"
       d="m 142.8927,47.850194 c 1.15915,-0.16804 2.32218,-0.30743 3.48141,-0.47717 0.42392,-0.0379 0.8336,-0.2177 1.25732,-0.25372 0.23785,-0.0202 0.25285,0.0135 0.4442,0.10328 -1.09089,-0.60505 -2.18178,-1.21011 -3.27266,-1.81516 0.0361,0.0107 0.08,0.008 0.10846,0.0322 0.19168,0.16601 0.0913,1.16497 0.0839,1.39919 -0.0252,0.83526 -0.0571,1.67072 -0.003,2.50517 0.0247,0.87142 0.38868,1.67601 0.69889,2.47554 0.1658,0.5293 0.46177,1.00055 0.61132,1.53445 0.0578,0.23302 0.081,0.47161 0.10359,0.70986 0,0 3.52263,1.75784 3.52263,1.75784 v 0 c -0.0189,-0.25663 -0.0388,-0.51346 -0.0861,-0.76688 -0.0289,-0.1442 -0.0776,-0.41308 -0.12609,-0.55249 -0.12686,-0.36474 -0.40125,-0.663 -0.48636,-1.04513 -0.31229,-0.76747 -0.71602,-1.52696 -0.75669,-2.37016 -0.0626,-0.82253 -0.0654,-1.64229 -0.0137,-2.46646 0.0152,-0.35149 0.0389,-0.70213 0.0571,-1.05343 0.002,-0.0463 0.0236,-0.47763 0.0196,-0.52963 -0.005,-0.0709 -0.0287,-0.13933 -0.0431,-0.209 -1.18756,-0.6622 -2.35797,-1.35614 -3.56268,-1.98662 -0.0671,-0.0351 -0.47284,0.0433 -0.50767,0.0504 -0.40071,0.0819 -0.79322,0.20426 -1.19844,0.26571 -1.17643,0.19205 -2.35908,0.33031 -3.54622,0.43718 z" />
    <path
       style="fill:#460000;fill-opacity:1;stroke-width:0.264583"
       id="path30"
       d="m 52.879105,56.501514 c 1.265341,1.04616 2.386071,2.23564 3.450768,3.48159 1.475419,1.77238 2.80018,3.66355 3.978801,5.64436 1.140193,1.85281 1.875748,3.89634 2.582773,5.94099 0.44655,1.27534 0.790797,2.57471 1.029737,3.90313 0.180432,1.16939 0.466463,2.31661 0.643003,3.48699 0.251479,2.17589 0.370578,1.95826 3.690642,3.34786 0.188938,0.0791 0.259572,-0.31827 0.368382,-0.49179 0.136379,-0.21749 0.243448,-0.45205 0.365172,-0.67807 0.893411,-2.03817 1.600637,-4.15412 2.17347,-6.30298 0.396997,-1.50244 0.676606,-3.02605 0.777828,-4.5761 0.0061,-1.23951 0.07976,-2.46725 0.236743,-3.69671 0.110247,-0.77776 0.206352,-1.55705 0.284846,-2.33853 0.04299,-0.42805 -0.09137,-0.39919 0.120149,-0.40446 -4.548372,-2.18796 -3.552449,-2.24339 -2.466038,-0.44477 0.481587,0.7973 0.877919,1.63002 1.261012,2.47739 0.86486,1.85966 1.490575,3.81167 2.040163,5.78335 0.467876,1.6601 0.669337,3.36966 0.757615,5.0867 0.0077,0.28767 0.0028,0.76729 0.07267,1.06144 0.350324,1.47367 3.497082,2.18219 3.840813,2.30853 0.161819,0.0595 1.040326,-0.98506 1.044128,-0.98929 1.097282,-1.53386 1.824236,-3.29264 2.560735,-5.01852 0.685083,-1.55328 1.220687,-3.16523 1.686102,-4.79599 0.458687,-1.66532 0.64043,-3.38187 0.822749,-5.0937 0.136122,-1.2358 0.228295,-2.47772 0.209986,-3.72139 -0.03298,-1.02355 -0.380119,-1.99045 -0.710049,-2.94819 0,0 -3.503096,-1.63771 -3.503096,-1.63771 v 0 c 0.333589,0.92303 0.688236,1.85815 0.767458,2.84376 0.05973,1.24058 -0.02603,2.48415 -0.100502,3.7225 -0.150365,1.68997 -0.368948,3.38149 -0.829715,5.01854 -0.416539,1.631 -0.939453,3.23266 -1.608328,4.7789 -0.717515,1.68122 -1.403979,3.41765 -2.538756,4.86892 -0.170815,0.15863 -0.320535,0.34356 -0.512445,0.47589 -0.129839,0.0895 -0.56039,0.0801 -0.437825,0.17938 0.929516,0.75276 2.020658,1.28044 3.030988,1.92066 -0.08042,-0.0715 -0.191302,-0.11926 -0.241256,-0.21459 -0.128645,-0.24551 -0.130222,-0.81408 -0.145002,-1.04943 -0.13149,-1.75228 -0.32376,-3.50398 -0.809828,-5.19931 -0.03963,-0.14293 -0.526492,-1.90285 -0.569326,-2.04209 -0.396467,-1.28885 -0.898546,-2.54293 -1.431046,-3.78052 -0.360887,-0.85596 -0.751189,-1.67936 -1.190363,-2.49809 -0.119296,-0.2224 -0.241546,-0.4432 -0.364189,-0.66377 -0.08905,-0.16016 -0.114733,-0.38247 -0.270875,-0.47838 -1.206719,-0.74121 -2.501466,-1.32851 -3.752199,-1.99276 -0.048,0.0843 -0.12116,0.15853 -0.143999,0.25277 -0.03236,0.13354 -0.0091,0.27469 -0.01707,0.41187 -0.04542,0.78473 -0.130225,1.5669 -0.229902,2.34637 -0.06289,0.46033 -0.140657,0.91866 -0.196151,1.37994 -0.09315,0.77427 -0.03379,1.55333 -0.07604,2.33055 -0.07374,1.53935 -0.256363,3.07176 -0.62524,4.57101 -0.550865,2.11018 -1.18887,4.21763 -2.205402,6.15656 -0.136816,0.18969 -0.257117,0.39246 -0.410451,0.56906 -0.03564,0.041 -0.191254,0.0416 -0.14628,0.0722 1.031354,0.70065 2.114378,1.32204 3.171568,1.98305 -0.04761,-0.0855 -0.1128,-0.16329 -0.142832,-0.2564 -0.04742,-0.14701 -0.132917,-0.8139 -0.150477,-0.93986 -0.196628,-1.16752 -0.458613,-2.3226 -0.635164,-3.49264 -0.106066,-0.5732 -0.200768,-1.15017 -0.360423,-1.71178 -0.220406,-0.7753 -0.519335,-1.52734 -0.75342,-2.29829 -0.74019,-2.05476 -1.449697,-4.13208 -2.575232,-6.01782 -1.179962,-1.99273 -2.505241,-3.89937 -3.958838,-5.70247 -1.000043,-1.19984 -2.01644,-2.39343 -3.204623,-3.41348 z" />
    <path
       style="fill:#460000;fill-opacity:1;stroke-width:0.264583"
       id="path31"
       d="m 82.843202,53.600314 c 0.05399,0.25056 0.111628,0.53983 0.188214,0.78006 0.16909,0.5304 0.379402,1.04704 0.549502,1.57711 0.05893,0.18365 0.587603,1.94777 0.629714,2.08802 0.593156,2.216 1.313797,4.39659 1.802622,6.63896 0.384784,1.99137 0.467379,4.02033 0.500756,6.04271 0.01593,1.1817 -0.03733,2.36246 -0.06022,3.54361 0.03109,0.68153 -0.07662,1.37104 0.04292,2.04584 1.185037,0.67565 2.305553,1.47975 3.555108,2.02696 0.139391,0.061 0.223073,-0.20987 0.311563,-0.33367 0.549812,-0.76919 0.710176,-1.80786 0.932789,-2.70213 0.35061,-1.44935 0.60227,-2.91994 0.81448,-4.39513 0.13028,-1.22928 0.37509,-2.44067 0.64404,-3.64581 0.32577,-1.00553 0.594,-2.0255 0.86089,-3.04765 0.0279,-0.092 0.16585,-0.62133 0.27209,-0.70296 0.0477,-0.0366 0.21943,0.0982 0.16596,0.0707 -1.04811,-0.5389 -2.06576,-1.14377 -3.150237,-1.6051 -0.172201,-0.0733 0.260429,0.27055 0.369847,0.42236 0.13909,0.19297 0.24871,0.40555 0.37307,0.60833 0.81505,1.45409 1.40764,3.00794 1.97359,4.57067 0.56323,1.60127 1.08062,3.21673 1.49332,4.8635 0.28584,1.13504 0.36545,2.30353 0.39052,3.46919 0.14516,1.78183 0.41001,1.0771 3.71077,2.33733 0.11904,0.0455 0.17537,-0.18573 0.25142,-0.28797 0.298911,-0.40185 0.376061,-0.606 0.61858,-1.07532 0.60335,-1.3056 1.24995,-2.59024 1.87524,-3.8852 0.39331,-0.75458 0.63361,-1.57041 0.94325,-2.35922 0.25824,-0.557 0.12299,-0.28568 0.40465,-0.81449 0,0 -3.366599,-1.92581 -3.366599,-1.92581 v 0 c -0.28631,0.55251 -0.14657,0.27078 -0.41857,0.84555 -0.343881,0.77461 -0.569891,1.58787 -0.910921,2.36386 -0.56062,1.313 -1.20373,2.59053 -1.83288,3.87145 -0.23492,0.38219 -0.34371,0.61952 -0.64724,0.92628 -0.0584,0.059 -0.27061,0.10051 -0.20148,0.14654 1.05973,0.70564 2.21976,1.24907 3.30275,1.91847 0.0533,0.0329 -0.14737,0.0547 -0.1879,0.007 -0.071,-0.0838 -0.0519,-0.2135 -0.0778,-0.32024 -0.0646,-1.1978 -0.13935,-2.40426 -0.41565,-3.57508 -0.45255,-1.6557 -0.97003,-3.29077 -1.527,-4.91438 -0.54301,-1.57349 -1.12701,-3.13044 -1.89913,-4.60892 -0.10777,-0.2087 -0.21328,-0.41858 -0.32331,-0.6261 -0.09,-0.16984 -0.11505,-0.40211 -0.27686,-0.5059 -0.4327,-0.27755 -3.1295,-2.94826 -4.027293,-1.84029 -0.128956,0.15914 -0.246097,0.59569 -0.303885,0.77928 -0.229399,1.03795 -0.482264,2.06906 -0.808781,3.08156 -0.279643,1.21274 -0.555683,2.43297 -0.65968,3.67536 -0.190013,1.46966 -0.398587,2.93868 -0.747057,4.38079 -0.18542,0.69273 -0.340764,1.43437 -0.686609,2.07154 -0.06823,0.12571 -0.146828,0.24918 -0.248436,0.34983 -0.0418,0.0414 -0.214455,0.0274 -0.165798,0.0605 1.036264,0.70429 2.124702,1.32856 3.187051,1.99285 -0.03529,-0.0576 -0.08604,-0.10815 -0.105889,-0.17269 -0.04277,-0.13912 -0.03516,-0.47377 -0.03631,-0.60547 -0.0034,-0.38837 -0.0055,-0.77679 0.0019,-1.16513 -0.0087,-1.20855 -0.05343,-2.41641 -0.07693,-3.62472 -0.05018,-2.04822 -0.094,-4.10478 -0.501192,-6.12093 -0.07483,-0.36474 -0.139131,-0.7318 -0.224478,-1.09422 -0.207404,-0.88072 -0.356582,-1.28644 -0.617829,-2.15544 -0.373816,-1.24345 -0.300889,-1.01243 -0.640609,-2.26804 -0.103611,-0.38296 -0.207549,-0.76582 -0.311327,-1.14873 -0.102325,-0.35771 -0.20465,-0.71542 -0.306975,-1.07313 -0.0846,-0.33204 -0.160589,-0.66639 -0.253793,-0.99611 -0.207344,-0.73349 -0.518629,-1.44924 -0.597009,-2.2138 z" />
    <path
       style="fill:#460000;fill-opacity:1;stroke-width:0.264583"
       id="path32"
       d="m 104.48186,68.857844 c 1.61693,-0.0711 3.23596,-0.0421 4.85369,-0.0229 1.17764,-0.0759 2.34409,-0.2537 3.51377,-0.40145 0.54281,-0.0913 1.08652,-0.0913 1.63371,-0.0579 0.11773,0.007 0.23535,0.0343 0.35295,0.0253 0.10984,-0.008 0.21422,-0.0516 0.32133,-0.0774 0.21522,-0.22698 0.37684,-0.316 0.3909,-0.66403 0.0296,-0.7334 -0.75184,-1.32227 -1.30004,-1.64959 -1.39568,-0.83332 -2.82785,-1.60395 -4.24178,-2.40592 -1.87322,-0.90734 -3.89846,-1.39872 -5.92018,-1.84148 -1.30918,-0.2105 -2.62883,-0.37043 -3.94759,-0.5144 -0.455649,-0.0161 -1.34705,-0.26371 -1.69861,0.16679 -0.28645,0.35077 -0.18159,0.59096 -0.16608,1.02762 0.35699,1.49387 0.95851,2.92044 1.552011,4.33361 0.665569,1.46883 1.395909,2.90573 2.069519,4.37099 0.46885,1.01692 0.92819,2.04332 1.17718,3.13825 0.0991,0.36803 0.0639,0.7812 0.21368,1.13759 0.0438,0.10411 0.0778,0.23527 0.17733,0.28868 1.24364,0.66759 2.45778,1.44128 3.80852,1.85095 0.27796,0.0843 0.48742,-0.31608 0.73114,-0.47412 1.79338,-1.23922 3.37399,-2.75237 5.01057,-4.18523 0.43123,-0.38709 0.90756,-0.69848 1.41554,-0.97057 0,0 -3.25347,-2.10603 -3.25347,-2.10603 v 0 c -0.49002,0.32282 -0.95022,0.67815 -1.36649,1.09511 -1.5372,1.49483 -3.10172,3.00882 -4.96606,4.09314 -1.84647,0.70522 -0.87198,0.10953 2.25191,2.17337 0.08,0.0528 -0.20089,-0.0347 -0.26858,-0.10257 -0.22082,-0.22136 -0.18149,-0.84141 -0.26851,-1.11544 -0.0711,-0.35694 -0.11393,-0.62603 -0.22731,-0.97429 -0.25526,-0.78404 -0.66304,-1.51686 -0.98065,-2.27501 -0.22518,-0.47263 -0.43345,-0.95321 -0.66001,-1.42517 -0.46993,-0.97892 -0.9941,-1.93199 -1.41407,-2.93507 -0.60306,-1.36333 -1.16359,-2.75233 -1.55225,-4.19356 -0.009,-0.0683 -0.13306,-0.47703 0.003,-0.60832 0.21407,-0.20672 1.22822,-0.0285 1.48499,-0.0274 1.31033,0.13754 2.61817,0.30975 3.91576,0.5384 1.97827,0.3963 3.94345,0.90088 5.74533,1.83843 -0.70693,-0.427 -1.4032,-0.87217 -2.12079,-1.28099 -0.2494,-0.1421 0.48504,0.30814 0.71492,0.48004 0.24886,0.18609 0.52962,0.3768 0.62861,0.69037 0.0587,0.18599 -0.0271,0.19118 -0.1476,0.27312 -0.75195,0.0523 -1.51651,-0.0497 -2.26036,0.13201 -1.14138,0.17472 -2.28712,0.33534 -3.44183,0.38744 -1.6388,0.0201 -3.27867,0.0459 -4.91676,-0.0229 z" />
    <path
       style="fill:#460000;fill-opacity:1;stroke-width:0.264583"
       id="path33"
       d="m 120.04037,68.443264 c 1.57585,-0.12268 3.10968,-0.49574 4.56074,-1.11675 0.50268,-0.25252 1.15408,-0.6344 0.99852,-1.3153 -0.0761,-0.33297 -0.2889,-0.5126 -0.50206,-0.75486 -1.52052,-1.23251 -3.19513,-2.40707 -5.07556,-2.98843 -0.41845,-0.12938 -0.67525,-0.16712 -1.10302,-0.24986 -1.15821,-0.13718 -1.75313,-0.007 -2.63984,0.74708 -0.72573,0.86458 -0.9105,1.95657 -1.03756,3.04222 -0.0831,0.99331 -0.11502,1.99055 -0.12747,2.98705 0.0292,0.86117 0.0206,1.7094 -0.12533,2.55976 -0.18209,0.87164 -0.29878,1.754 -0.42564,2.63477 -0.0203,0.16868 -0.2026,1.32088 -0.0669,1.39689 3.61084,2.02323 2.61036,2.63342 4.00686,1.56148 1.03503,-0.97693 2.32429,-1.58137 3.59523,-2.18704 0.21225,-0.0978 0.4245,-0.19558 0.63675,-0.29337 0,0 -3.1811,-2.10169 -3.1811,-2.10169 v 0 c -0.20782,0.10239 -0.41563,0.20479 -0.62344,0.30718 -0.71085,0.35822 -1.43835,0.69848 -2.1283,1.09624 -0.63431,0.36569 -0.60149,0.38252 -1.16993,0.78309 -0.13443,0.0947 -0.27188,0.18513 -0.40781,0.27769 -1.44743,0.6165 -0.18625,-0.0108 2.93782,2.02733 0.067,0.0437 -0.18263,0.1005 -0.23643,0.0413 -0.0694,-0.0764 -0.0113,-0.20636 -0.007,-0.30945 0.007,-0.16997 0.0637,-0.62499 0.0827,-0.78638 0.12232,-0.87766 0.22322,-1.75915 0.40704,-2.62689 0.16761,-0.86315 0.21481,-1.73255 0.17918,-2.61135 -0.0135,-0.9913 -0.0315,-1.98449 0.0577,-2.9733 0.10906,-0.98024 0.24789,-1.99378 0.92652,-2.7613 0.10384,-0.0804 0.20091,-0.17041 0.31151,-0.24122 0.63304,-0.40531 1.39267,-0.36216 2.103,-0.2402 0.4358,0.10447 0.64092,0.13752 1.06141,0.30428 0.16976,0.0673 0.6528,0.32586 0.49693,0.2307 -5.19202,-3.17006 -3.13577,-1.87948 -2.03294,-1.11254 0.13952,0.1222 0.67103,0.50236 0.67589,0.72417 0.008,0.36972 -0.5591,0.55119 -0.77813,0.70936 -1.42171,0.64358 -2.94863,0.97471 -4.51292,0.97801 z" />
    <path
       style="fill:#460000;fill-opacity:1;stroke-width:0.264583"
       id="path34"
       d="m 127.22443,59.141164 c 0.91521,1.26359 1.70687,2.5992 2.44127,3.97405 0.64614,1.28165 1.10836,2.64476 1.37857,4.05387 0.14869,0.77539 0.17665,1.17154 0.26455,1.96123 0.17644,2.066 0.148,4.13986 0.13326,6.21084 -0.0214,1.39696 -0.009,2.79476 -0.16505,4.18476 -0.0264,0.17511 -0.0527,0.35023 -0.079,0.52534 0,0 3.40727,1.80287 3.40727,1.80287 v 0 c 0.0291,-0.18114 0.0582,-0.36229 0.0872,-0.54343 0.13459,-1.41976 0.10033,-2.84495 0.085,-4.26937 -0.008,-2.08413 -0.003,-4.17242 -0.13129,-6.25275 -0.0311,-0.34018 -0.0512,-0.68155 -0.0933,-1.02055 -0.22139,-1.7825 -0.74087,-3.51152 -1.51116,-5.13301 -0.32125,-0.6259 -0.61817,-1.26467 -0.95895,-1.88016 -0.3811,-0.68831 -0.84619,-1.32991 -1.24955,-2.00501 z" />
    <path
       style="fill:#460000;fill-opacity:1;stroke-width:0.264583"
       id="path35"
       d="m 140.38267,70.660184 c -0.78694,-0.0581 -1.57536,-0.0858 -2.36387,-0.11147 -0.75182,-0.0197 -1.4039,0.26245 -2.0219,0.66145 -0.0579,0.0581 -0.36839,0.34596 -0.38405,0.45133 -0.0242,0.16305 -0.0103,0.34122 0.0584,0.49108 0.21328,0.46539 1.09218,0.95371 1.48849,1.22235 1.31818,0.83791 2.64032,1.67101 3.92191,2.56438 0.46139,0.38395 1.03632,0.72516 1.34139,1.26163 -0.0101,0.017 -0.0116,0.0445 -0.0303,0.051 -0.07,0.0243 -0.14651,0.0223 -0.21936,0.0358 -0.70487,0.13057 -1.40929,0.18155 -2.12268,0.24819 -1.03929,0.0969 -1.90069,0.38616 -2.82576,0.84818 -0.49502,0.27777 -0.26018,0.13233 -0.70643,0.43323 0,0 3.28494,2.10116 3.28494,2.10116 v 0 c 0.41071,-0.27616 0.19178,-0.14172 0.65948,-0.39889 0.85919,-0.40659 1.76201,-0.67052 2.71292,-0.75628 0.67916,-0.0605 2.13135,-0.0523 2.64144,-0.54635 0.0781,-0.0756 0.10228,-0.19191 0.15342,-0.28786 -0.002,-0.0931 0.0203,-0.18988 -0.006,-0.27919 -0.12602,-0.42945 -0.99189,-1.01837 -1.30951,-1.30353 -1.29151,-0.90267 -2.62691,-1.7411 -3.9572,-2.58479 -0.48589,-0.32607 -0.96508,-0.6897 -1.46566,-0.993 -0.073,-0.0443 -0.20165,-0.028 -0.23256,-0.1076 -0.0238,-0.0614 0.27863,-0.31292 0.29401,-0.32681 0.57581,-0.34899 1.18179,-0.53442 1.86337,-0.49032 0.79942,0.0237 1.60123,0.0578 2.39288,0.17832 z" />
    <text
       xml:space="preserve"
       style="font-size:8.0943px;fill:#000000;fill-opacity:1;stroke-width:1.95028;stroke-dasharray:none"
       x="74.734131"
       y="86.162094"
       id="text35"><tspan
         id="tspan35"
         style="fill:#000000;fill-opacity:1;stroke-width:1.95028;stroke-dasharray:none"
         x="74.734131"
         y="86.162094"
         sodipodi:role="line">Expeditioning</tspan></text>
  </g>
</svg>
